# xmcd
#
# Track frame offsets: 
#        150
#        13043
#        24284
#        37328
#        43853
#        57118
#        71374
#        86365
#        98148
#        111847
#        124745
#        139130
#        150288
#        164981
#        177879
#        186922
#        202585
#        213816
#        224595
#        237207
#        250014
#        263525
#        276118
#        294569
#        305279
#
# Disc length: 4239 seconds
#
# Revision: 0
# Processed by: cddbd v1.5.2PL0 Copyright (c) Steve Scherf et al.
# Submitted via: ExactAudioCopy v1.0b1
#
DISCID=5d108d19
DTITLE=Various Artist - Blues: The Vintage Collection - CD 2
DYEAR=2015
DGENRE=Blues
TTITLE0=(I’m Your) Hoochie Coochie Man - Muddy Waters
TTITLE1=Boom Boom - John Lee Hooker
TTITLE2=You Got Me Dizzy - Jimmy Reed
TTITLE3=Young Man’s Blues - Mose Allison
TTITLE4=All Your Love - Magic Sam
TTITLE5=Match Box Blues - Blind Lemon Jefferson
TTITLE6=Stack Of Dollars - Big Joe Williams
TTITLE7=Hide Away - Freddie King
TTITLE8=Cotton Crop Blues - James Cotton
TTITLE9=Crazy For My Baby - Willie Dixon
TTITLE10=I Got My Mojo Working - Alexis Korner
TTITLE11=She’s A Truckin’ Little Baby - Blind Boy Fuller
TTITLE12=Spike Driver Blues - Mississippi John Hurt
TTITLE13=Hound Dog - Big Mama Thornton
TTITLE14=Do What I Say - J.B. Lenoir
TTITLE15=Take A Little Walk With Me - Otis Spann
TTITLE16=Lonesome - Memphis Slim
TTITLE17=Come On In This House - Junior Wells
TTITLE18=Blue Guitar - Earl Hooker
TTITLE19=Prisoner’s Plea - Billy Boy Arnold
TTITLE20=Devil Got My Woman - Skip James
TTITLE21=Me and My Chauffeur Blues - Memphis Minnie
TTITLE22=Samson And Delilah - Rev. Gary Davis
TTITLE23=Saint James Infirmary - Snooks Eaglin
TTITLE24=Fixin’ To Die - Bukka White
EXTD=
EXTT0=
EXTT1=
EXTT2=
EXTT3=
EXTT4=
EXTT5=
EXTT6=
EXTT7=
EXTT8=
EXTT9=
EXTT10=
EXTT11=
EXTT12=
EXTT13=
EXTT14=
EXTT15=
EXTT16=
EXTT17=
EXTT18=
EXTT19=
EXTT20=
EXTT21=
EXTT22=
EXTT23=
EXTT24=
PLAYORDER=
